<svg width="66" height="65" viewBox="0 0 66 65" fill="none" xmlns="http://www.w3.org/2000/svg">
<g filter="url(#filter0_d_894_798)">
<rect x="5" y="2" width="56" height="56" rx="8" fill="white"/>
</g>
<g clip-path="url(#clip0_894_798)">
<mask id="mask0_894_798" style="mask-type:luminance" maskUnits="userSpaceOnUse" x="32" y="18" width="18" height="15">
<path d="M32.101 18.8125H49.7547V32.6072H32.101V18.8125Z" fill="white"/>
</mask>
<g mask="url(#mask0_894_798)">
<path d="M38.5615 20.7042L37.0833 27.581L35.5001 20.2119C35.4322 19.8615 35.2571 19.5405 34.9989 19.2929C34.7406 19.0453 34.4117 18.8831 34.0573 18.8286C33.7799 18.788 33.4967 18.8161 33.2328 18.9104C32.9689 19.0047 32.7324 19.1623 32.5443 19.3693C32.3562 19.5762 32.2223 19.8262 32.1545 20.0969C32.0866 20.3677 32.0869 20.6509 32.1553 20.9215L34.6656 32.6067H39.0512L40.9243 23.922L42.801 32.6046H47.1924L49.7013 20.9223C49.7697 20.6515 49.7699 20.3682 49.702 20.0974C49.6341 19.8265 49.5002 19.5765 49.312 19.3695C49.1239 19.1625 48.8873 19.0048 48.6233 18.9105C48.3593 18.8161 48.076 18.788 47.7985 18.8286C47.4443 18.883 47.1156 19.045 46.8573 19.2923C46.5991 19.5396 46.4239 19.8603 46.3557 20.2105L44.7697 27.5961L43.2878 20.7042C43.1697 20.1679 42.871 19.6879 42.4412 19.3438C42.0114 18.9996 41.4763 18.812 40.9247 18.812C40.373 18.812 39.8379 18.9996 39.4081 19.3438C38.9783 19.6879 38.6796 20.1679 38.5615 20.7042Z" fill="#0068FF"/>
</g>
<mask id="mask1_894_798" style="mask-type:luminance" maskUnits="userSpaceOnUse" x="16" y="12" width="15" height="21">
<path d="M16.9606 12.873H30.2251V32.6068H16.9606V12.873Z" fill="white"/>
</mask>
<g mask="url(#mask1_894_798)">
<path d="M24.2446 18.7468C22.9874 18.6203 21.7205 18.8646 20.6018 19.4492V14.8165C20.6154 14.3275 20.4386 13.8522 20.1082 13.4901C19.7778 13.1279 19.3195 12.9069 18.8292 12.8732C18.583 12.8697 18.3387 12.9152 18.1106 13.0072C17.8825 13.0991 17.6752 13.2357 17.501 13.4087C17.3268 13.5817 17.1892 13.7877 17.0963 14.0146C17.0035 14.2414 16.9572 14.4845 16.9604 14.7294V32.607H20.6018V25.4473C20.5999 25.0114 20.6934 24.5803 20.8757 24.184C21.058 23.7877 21.3248 23.4356 21.6576 23.1522C21.9903 22.8687 22.3811 22.6608 22.8027 22.5427C23.2244 22.4246 23.6668 22.3993 24.0993 22.4684C24.8123 22.6128 25.4517 23.0017 25.906 23.5673C26.3603 24.1329 26.6006 24.8393 26.585 25.5632V32.5962C26.5851 32.5984 26.5861 32.6005 26.5877 32.6021C26.5893 32.6037 26.5914 32.6046 26.5936 32.6048H30.2155C30.2178 32.6048 30.22 32.6039 30.2217 32.6023C30.2233 32.6007 30.2242 32.5985 30.2242 32.5962V25.6265C30.2551 23.9479 29.6617 22.3171 28.5581 21.0473C27.4544 19.7775 25.9183 18.9582 24.2446 18.7468Z" fill="#0068FF"/>
</g>
<path d="M49.8257 36.6702C49.8257 36.9352 49.7468 37.1943 49.5988 37.4146C49.4509 37.635 49.2406 37.8067 48.9946 37.9082C48.7486 38.0096 48.4778 38.0362 48.2166 37.9846C47.9554 37.9329 47.7155 37.8054 47.5271 37.618C47.3388 37.4307 47.2105 37.192 47.1584 36.9321C47.1064 36.6722 47.1329 36.4027 47.2347 36.1578C47.3366 35.913 47.509 35.7036 47.7304 35.5563C47.9518 35.4089 48.212 35.3302 48.4784 35.3301C48.8356 35.3301 49.1782 35.4712 49.4308 35.7225C49.6835 35.9738 49.8255 36.3147 49.8257 36.6702Z" fill="#FF7A6D"/>
<mask id="mask2_894_798" style="mask-type:luminance" maskUnits="userSpaceOnUse" x="17" y="35" width="31" height="13">
<path d="M17.0364 35.5117H47.6531V47.125H17.0364V35.5117Z" fill="white"/>
</mask>
<g mask="url(#mask2_894_798)">
<path d="M33.3809 47.1242C30.0508 47.1151 26.7857 46.206 23.9342 44.4941C21.0828 42.7823 18.7521 40.3319 17.1909 37.4046C17.0298 37.1067 16.9926 36.7578 17.0872 36.4329C17.1819 36.108 17.4009 35.833 17.6972 35.6672C17.8435 35.5869 18.0043 35.5365 18.1704 35.5188C18.3365 35.5011 18.5045 35.5166 18.6645 35.5643C18.8245 35.612 18.9733 35.691 19.1023 35.7967C19.2313 35.9023 19.3378 36.0325 19.4156 36.1796C20.7623 38.7045 22.7728 40.818 25.2325 42.2944C27.6921 43.7709 30.5085 44.5549 33.3809 44.5628C35.6755 44.5597 37.9417 44.059 40.022 43.0955C42.1022 42.1319 43.9464 40.7287 45.4261 38.9836C45.5336 38.8564 45.6655 38.7519 45.814 38.6762C45.9626 38.6004 46.1249 38.555 46.2914 38.5425C46.4579 38.5301 46.6252 38.5508 46.7835 38.6036C46.9418 38.6563 47.0879 38.74 47.2132 38.8497C47.4681 39.0739 47.6246 39.3885 47.6494 39.7261C47.6741 40.0637 47.5651 40.3976 47.3456 40.6562C45.63 42.6794 43.4919 44.3061 41.0802 45.4232C38.6685 46.5402 36.0411 47.1207 33.3809 47.1242Z" fill="#0068FF"/>
</g>
</g>
<defs>
<filter id="filter0_d_894_798" x="0.776131" y="0.310452" width="64.4477" height="64.4477" filterUnits="userSpaceOnUse" color-interpolation-filters="sRGB">
<feFlood flood-opacity="0" result="BackgroundImageFix"/>
<feColorMatrix in="SourceAlpha" type="matrix" values="0 0 0 0 0 0 0 0 0 0 0 0 0 0 0 0 0 0 127 0" result="hardAlpha"/>
<feOffset dy="2.53432"/>
<feGaussianBlur stdDeviation="2.11193"/>
<feColorMatrix type="matrix" values="0 0 0 0 0.194739 0 0 0 0 0.200906 0 0 0 0 0.367427 0 0 0 0.15 0"/>
<feBlend mode="normal" in2="BackgroundImageFix" result="effect1_dropShadow_894_798"/>
<feBlend mode="normal" in="SourceGraphic" in2="effect1_dropShadow_894_798" result="shape"/>
</filter>
<clipPath id="clip0_894_798">
<rect width="32.8638" height="34.2524" fill="white" transform="translate(16.9612 12.873)"/>
</clipPath>
</defs>
</svg>
