<svg width="1783" height="402" viewBox="0 0 1783 402" fill="none" xmlns="http://www.w3.org/2000/svg">
<g clip-path="url(#clip0_1306_137295)">
<path d="M303.579 181.096L282.513 190.447C276.305 193.194 274.184 200.974 277.953 206.622L277.843 206.524C280.799 210.952 286.513 212.611 291.381 210.458L351.698 183.711C352.468 183.37 353.16 182.953 353.808 182.469C371.511 173.272 383.291 154.217 381.785 132.614C379.961 106.515 358.577 85.6368 332.446 84.3951C302.645 82.9885 277.953 106.823 277.953 136.317C277.953 155.371 288.261 172.041 303.579 181.096ZM326.655 106.394C345.808 104.362 361.874 120.427 359.841 139.58C358.357 153.536 347.138 164.756 333.182 166.239C314.029 168.272 297.964 152.206 299.996 133.053C301.48 119.097 312.699 107.878 326.655 106.394Z" fill="#F8375B"/>
<path d="M329.281 248.951C328.743 246.325 327.468 243.94 325.567 242.039C324.919 241.391 324.204 240.808 323.424 240.292L322.743 239.841C316.512 235.732 308.073 237.446 303.93 243.665C298.887 251.248 293.019 258.401 286.48 264.94C273.294 278.126 257.921 288.335 240.8 295.279C224.251 301.994 206.768 305.389 188.824 305.389C170.879 305.389 153.396 301.994 136.847 295.279C119.727 288.335 104.353 278.126 91.167 264.94C87.6506 261.423 84.332 257.709 81.2222 253.863L216.559 193.876C217.526 193.447 218.416 192.909 219.229 192.304C240.361 181.327 254.833 159.25 254.833 133.844C254.833 97.5376 225.295 68 188.988 68C152.682 68 123.144 97.5376 123.144 133.844C123.144 157.976 136.199 179.096 155.605 190.568L54.168 235.534C47.1682 238.633 44.0144 246.819 47.1132 253.819C47.6956 255.127 48.4429 256.291 49.333 257.313C49.6297 257.951 49.9593 258.588 50.3659 259.182C56.4536 268.335 63.5084 276.95 71.3323 284.763C136.111 349.542 241.525 349.542 306.315 284.763C314.128 276.95 321.183 268.346 327.27 259.182C329.259 256.193 329.996 252.456 329.27 248.929L329.281 248.951ZM188.999 95.7355C210.021 95.7355 227.119 112.834 227.119 133.855C227.119 154.877 210.021 171.975 188.999 171.975C167.978 171.975 150.88 154.877 150.88 133.855C150.88 112.834 167.978 95.7355 188.999 95.7355Z" fill="#0068FF"/>
<path d="M27.4985 181.096L6.43313 190.447C0.22451 193.194 -1.89631 200.974 1.87282 206.622L1.76293 206.524C4.71889 210.952 10.433 212.611 15.301 210.458L75.618 183.711C76.3872 183.37 77.0795 182.953 77.7279 182.469C95.4307 173.272 107.211 154.217 105.705 132.614C103.881 106.515 82.497 85.6368 56.3658 84.3951C26.5644 82.9885 1.87282 106.823 1.87282 136.317C1.87282 155.371 12.1802 172.041 27.4985 181.096ZM50.5748 106.394C69.7281 104.362 85.7936 120.427 83.7607 139.58C82.2772 153.536 71.0577 164.756 57.1021 166.239C37.9487 168.272 21.8832 152.206 23.9162 133.053C25.3996 119.097 36.6191 107.878 50.5748 106.394Z" fill="#0068FF"/>
<path d="M496.629 140.416V187.986H542.737V140.416H570.704V264.083H542.737V212.337H496.629V264.083H468.674V140.416H496.629Z" fill="#0068FF"/>
<path d="M645.526 264.071L643.877 255.149H643.284C637.427 262.302 628.262 266.093 617.636 266.093C599.351 266.093 588.604 252.962 588.604 238.622C588.604 215.227 609.538 204.139 641.306 204.172V203.029C641.306 198.26 638.746 191.436 624.867 191.469C615.713 191.469 606.098 194.59 600.12 198.172L594.978 180.305C601.23 176.722 613.472 172.261 629.878 172.261C659.767 172.261 669.228 189.931 669.228 211.018V242.336C669.228 250.896 669.679 259.039 670.657 264.082H645.526V264.071ZM642.141 221.611C627.449 221.534 616.098 225.073 616.098 235.765C616.098 242.995 620.823 246.512 627.175 246.512C634.01 246.512 639.779 241.951 641.614 236.193C642.031 234.743 642.13 233.006 642.13 231.424V221.6L642.141 221.611Z" fill="#0068FF"/>
<path d="M691.283 204.447C691.283 192.645 690.931 182.689 690.547 174.272H714.81L716.106 186.843H716.48C723.128 177.36 733.359 172.25 746.391 172.25C766.039 172.25 783.698 189.337 783.698 217.996C783.698 250.742 762.841 266.093 742.864 266.093C732.139 266.093 723.546 261.775 719.59 255.852H719.216V300.411H691.294V204.458L691.283 204.447ZM719.205 225.633C719.205 227.732 719.37 229.677 719.766 231.457C721.568 238.929 728.018 244.698 736.084 244.698C748.138 244.698 755.347 234.534 755.347 219.293C755.347 205.007 748.963 194.106 736.534 194.106C728.634 194.106 721.535 200.073 719.843 208.227C719.425 209.82 719.205 211.523 719.205 213.216V225.633Z" fill="#0068FF"/>
<path d="M800.994 204.447C800.994 192.645 800.642 182.689 800.258 174.272H824.521L825.817 186.843H826.191C832.839 177.36 843.07 172.25 856.102 172.25C875.75 172.25 893.409 189.337 893.409 217.996C893.409 250.742 872.552 266.093 852.575 266.093C841.85 266.093 833.257 261.775 829.301 255.852H828.927V300.411H801.005V204.458L800.994 204.447ZM828.916 225.633C828.916 227.732 829.081 229.677 829.477 231.457C831.279 238.929 837.729 244.698 845.795 244.698C857.849 244.698 865.058 234.534 865.058 219.293C865.058 205.007 858.674 194.106 846.245 194.106C838.344 194.106 831.246 200.073 829.553 208.227C829.136 209.82 828.916 211.523 828.916 213.216V225.633Z" fill="#0068FF"/>
<path d="M929.924 174.272L943.341 218.424C944.869 223.688 946.616 230.402 947.824 235.094H948.407C949.649 230.248 951.077 223.589 952.396 218.369L963.461 174.272H993.241L972.428 233.391C959.538 269.049 950.945 283.28 940.814 292.269C931.199 300.697 920.913 303.796 913.935 304.554L907.957 281.016C911.518 280.346 915.825 278.719 920.1 276.269C924.364 274.016 929.001 269.533 931.605 265.071C932.561 263.665 933.166 262.247 933.166 261.05C933.166 260.006 932.935 258.654 931.935 256.434L899.035 174.283H929.935L929.924 174.272Z" fill="#0068FF"/>
<path d="M1006 142.108C1014.98 140.591 1028.28 139.449 1043.16 139.449C1061.5 139.449 1074.36 142.251 1083.18 149.25C1090.57 155.118 1094.62 163.8 1094.62 175.173C1094.62 190.843 1083.43 201.744 1072.79 205.568V206.15C1081.37 209.611 1086.2 217.809 1089.3 229.182C1093.13 243.171 1096.87 259.291 1099.28 264.082H1070.66C1068.76 260.5 1065.67 250.566 1062.15 235.259C1058.7 219.798 1053.51 215.666 1042.01 215.523H1033.7V264.082H1006V142.119V142.108ZM1033.71 195.293H1044.67C1058.54 195.293 1066.83 188.227 1066.83 177.48C1066.83 166.162 1059.08 160.371 1046.3 160.294C1039.6 160.294 1035.68 160.734 1033.71 161.228V195.293Z" fill="#F8375B"/>
<path d="M1135.67 228.149C1136.5 239.742 1147.95 245.237 1160.97 245.237C1170.41 245.237 1178.15 243.973 1185.69 241.435L1189.46 260.324C1180.17 264.115 1168.96 266.006 1156.92 266.006C1126.5 266.006 1109.03 248.292 1109.03 220.303C1109.03 197.48 1123.26 172.261 1154.29 172.261C1183.4 172.261 1194.39 194.887 1194.39 217.095C1194.39 221.963 1193.88 226.084 1193.39 228.149H1135.67ZM1168.45 209.029C1168.5 202.304 1165.49 190.832 1152.79 190.832C1141 190.832 1136.22 201.601 1135.43 209.029H1168.45Z" fill="#F8375B"/>
<path d="M1278.41 261.83C1273.39 264.159 1264.01 266.006 1253.4 266.006C1224.38 266.006 1205.9 248.248 1205.9 220.04C1205.9 193.788 1223.85 172.327 1257.23 172.327C1264.62 172.327 1272.72 173.667 1278.54 175.865L1274.19 196.601C1270.82 195.106 1265.92 193.744 1258.56 193.744C1243.81 193.744 1234.33 204.216 1234.44 218.908C1234.44 235.391 1245.51 244.149 1259.03 244.149C1265.7 244.149 1270.82 242.973 1275.11 241.226L1278.4 261.819L1278.41 261.83Z" fill="#F8375B"/>
<path d="M1293.74 203.875C1293.74 190.689 1293.51 182.008 1293 174.272H1316.99L1318.01 190.898H1318.7C1323.31 177.766 1334.24 172.261 1342.95 172.261C1345.53 172.261 1346.84 172.327 1348.91 172.777V199.029C1346.75 198.579 1344.5 198.249 1341.36 198.249C1331.11 198.249 1324.1 203.689 1322.23 212.425C1321.88 214.205 1321.72 216.38 1321.72 218.644V264.082H1293.75V203.875H1293.74Z" fill="#F8375B"/>
<path d="M1447.49 235.292C1447.49 246.973 1447.84 256.61 1448.23 264.082H1424.01L1422.72 251.413H1422.14C1418.64 256.962 1410.26 266.104 1394.15 266.104C1375.9 266.104 1362.6 254.698 1362.6 227.084V174.283H1390.57V222.545C1390.57 235.688 1394.79 243.556 1404.63 243.556C1412.22 243.556 1416.7 238.292 1418.5 233.732C1419.21 232.105 1419.53 230.05 1419.53 227.809V174.283H1447.48V235.303L1447.49 235.292Z" fill="#F8375B"/>
<path d="M1498.61 149.338C1498.64 157.118 1492.9 163.283 1483.6 163.283C1474.3 163.283 1469.03 157.107 1469.07 149.338C1469.04 141.361 1474.9 135.361 1483.85 135.361C1492.81 135.361 1498.5 141.339 1498.61 149.338ZM1469.87 264.071V174.261H1497.82V264.071H1469.87Z" fill="#F8375B"/>
<path d="M1551.27 148.657V174.272H1571.37V194.865H1551.27V227.402C1551.27 238.237 1553.96 243.226 1562.29 243.226C1565.9 243.226 1568.67 242.852 1570.59 242.391L1570.81 263.599C1567.2 264.896 1560.53 265.994 1552.72 265.994C1543.7 265.994 1536.16 262.852 1531.68 258.203C1526.49 252.885 1523.96 244.347 1523.96 231.589V194.854H1512.03V174.261H1523.96V154.965L1551.27 148.646V148.657Z" fill="#F8375B"/>
<path d="M1583.97 249.182C1583.97 239.226 1590.82 232.193 1600.47 232.193C1610.12 232.193 1616.79 239.05 1616.9 249.182C1616.9 259.006 1610.31 266.104 1600.4 266.104C1590.49 266.104 1583.95 259.017 1583.97 249.182Z" fill="#F8375B"/>
<path d="M1663.36 232.325L1654.63 264.082H1625.72L1663.45 140.416H1700.05L1738.55 264.082H1708.42L1698.91 232.325H1663.36ZM1694.77 211.491L1687.07 185.217C1684.95 177.909 1682.75 168.635 1680.85 161.404H1680.46C1678.65 168.679 1676.78 178.063 1674.81 185.249L1667.41 211.502H1694.77V211.491Z" fill="#F8375B"/>
<path d="M1783 140.416V264.082H1755.04V140.416H1783Z" fill="#F8375B"/>
</g>
<defs>
<clipPath id="clip0_1306_137295">
<rect width="1783" height="402" fill="white"/>
</clipPath>
</defs>
</svg>
